<?xml version="1.0" standalone="no"?>
<!DOCTYPE svg PUBLIC "-//W3C//DTD SVG 20010904//EN"
 "http://www.w3.org/TR/2001/REC-SVG-20010904/DTD/svg10.dtd">
<svg version="1.0" xmlns="http://www.w3.org/2000/svg"
 width="500.000000pt" height="500.000000pt" viewBox="0 0 500.000000 500.000000"
 preserveAspectRatio="xMidYMid meet">
<metadata>
Created by potrace 1.14, written by Peter Selinger 2001-2017
</metadata>
<g transform="translate(0.000000,500.000000) scale(0.100000,-0.100000)"
fill="#000000" stroke="none">
<path d="M2408 4894 c-4 -3 -34 -6 -67 -7 -34 -1 -61 -4 -61 -7 0 -3 -24 -6
-53 -8 -28 -2 -53 -6 -55 -11 -1 -4 -17 -5 -34 -3 -18 3 -28 1 -25 -5 3 -5
-12 -9 -34 -8 -22 1 -42 -3 -45 -7 -3 -4 -16 -8 -30 -8 -13 0 -24 -4 -24 -8 0
-4 -8 -8 -17 -9 -61 -4 -123 -23 -123 -37 0 -6 -5 -4 -10 4 -5 8 -10 10 -10 4
0 -10 -107 -50 -122 -46 -5 1 -8 -2 -8 -8 0 -6 -3 -9 -7 -8 -5 1 -28 -7 -53
-18 -25 -10 -48 -18 -52 -16 -5 1 -8 -3 -8 -9 0 -5 -4 -7 -10 -4 -5 3 -10 2
-10 -3 0 -11 -57 -36 -77 -35 -7 0 -13 -5 -13 -13 0 -8 -3 -13 -7 -12 -14 4
-53 -13 -53 -23 0 -5 -6 -9 -13 -9 -7 0 -22 -8 -33 -17 -11 -10 -26 -19 -34
-21 -8 -2 -18 -8 -21 -14 -3 -5 -10 -10 -15 -10 -5 -1 -22 -11 -37 -22 -16
-12 -31 -20 -33 -18 -2 1 -12 -6 -22 -15 -36 -35 -68 -59 -86 -66 -10 -4 -14
-12 -10 -18 4 -8 3 -9 -4 -5 -7 4 -12 2 -12 -5 0 -7 -3 -9 -6 -6 -4 4 -15 -3
-25 -15 -11 -11 -19 -17 -19 -12 0 5 -7 -2 -16 -14 -8 -12 -20 -20 -25 -16 -5
3 -8 1 -7 -4 2 -4 -14 -25 -34 -45 -21 -20 -38 -34 -38 -30 0 3 -10 -7 -22
-23 -12 -16 -31 -35 -40 -42 -10 -7 -15 -18 -12 -24 4 -6 3 -8 -3 -5 -5 3 -22
-10 -39 -30 -16 -19 -41 -49 -56 -66 -16 -17 -28 -34 -28 -38 0 -9 -57 -29
-64 -22 -3 3 -13 0 -23 -8 -9 -8 -14 -9 -10 -3 4 7 -9 10 -38 10 -25 -1 -45
-3 -45 -6 0 -3 -54 -5 -120 -5 -66 0 -120 -4 -120 -9 0 -4 -7 -3 -15 4 -8 7
-15 8 -15 3 0 -6 -11 -9 -24 -8 -32 4 -83 -22 -106 -55 -11 -15 -22 -46 -25
-70 -3 -23 -8 -46 -11 -51 -3 -5 0 -9 6 -9 6 0 9 -4 5 -9 -8 -14 -14 -91 -6
-91 4 0 8 -12 9 -27 1 -15 5 -29 10 -32 14 -11 62 -91 55 -91 -5 0 -1 -5 7
-10 9 -5 16 -26 16 -50 1 -22 3 -41 4 -42 3 -4 7 -52 10 -135 2 -34 6 -60 10
-58 4 2 5 -11 3 -30 -2 -20 2 -45 8 -56 9 -17 8 -20 -2 -14 -9 6 -10 3 -4 -11
10 -24 14 -164 4 -164 -4 0 -7 -12 -5 -27 1 -16 -1 -32 -4 -38 -9 -12 -19 -87
-25 -180 -3 -38 -7 -85 -9 -102 -2 -20 1 -33 8 -33 8 0 8 -2 0 -8 -14 -9 -14
-132 0 -132 7 0 8 -3 1 -8 -12 -9 -18 -32 -7 -32 4 0 7 -28 6 -62 0 -35 2 -67
5 -73 3 -5 6 -17 7 -25 2 -8 5 -31 8 -50 3 -19 7 -44 8 -55 2 -11 8 -23 13
-27 6 -5 5 -8 -3 -8 -8 0 -10 -5 -5 -12 4 -7 8 -20 8 -28 0 -8 3 -20 7 -26 4
-6 9 -25 10 -43 1 -17 6 -31 11 -31 5 0 6 -9 2 -19 -3 -10 0 -25 7 -32 7 -8
13 -25 12 -39 0 -23 15 -68 38 -113 5 -10 6 -22 3 -27 -4 -6 -1 -10 4 -10 6 0
10 -3 9 -7 -1 -9 9 -40 23 -65 5 -10 9 -25 9 -33 0 -8 4 -15 8 -15 4 0 8 -10
9 -22 1 -11 6 -24 11 -27 5 -3 20 -30 32 -58 12 -29 26 -53 31 -53 5 0 6 -6 3
-13 -2 -7 5 -23 16 -35 12 -12 18 -27 14 -34 -4 -7 -3 -8 4 -4 8 5 12 -1 12
-14 0 -12 5 -18 10 -15 5 3 10 -1 10 -9 0 -9 9 -25 19 -35 11 -11 16 -22 13
-26 -4 -4 1 -11 11 -16 9 -6 17 -17 17 -24 0 -8 5 -15 10 -15 6 0 10 -6 10
-13 0 -8 9 -22 20 -32 11 -10 20 -24 20 -32 0 -8 4 -12 9 -9 5 3 14 -8 21 -24
7 -17 16 -30 21 -30 5 0 9 -7 9 -16 0 -8 5 -12 10 -9 6 3 10 2 10 -2 0 -14 29
-47 116 -136 96 -98 146 -143 157 -139 4 1 7 -2 7 -7 0 -15 61 -69 92 -82 16
-6 28 -17 28 -25 0 -7 9 -16 21 -19 12 -4 29 -14 38 -23 10 -10 26 -23 37 -29
10 -7 36 -24 56 -37 20 -13 39 -22 42 -18 3 3 6 0 6 -6 0 -7 7 -12 15 -12 8 0
15 -4 15 -8 0 -5 16 -14 35 -22 19 -8 35 -18 35 -22 0 -5 4 -7 9 -4 5 3 14 -1
21 -9 7 -8 19 -15 26 -15 8 0 14 -4 14 -10 0 -5 7 -7 15 -4 8 4 15 1 15 -6 0
-6 5 -8 10 -5 5 3 10 3 10 -2 0 -9 61 -39 72 -35 5 1 8 -2 8 -6 0 -5 23 -15
50 -22 28 -7 50 -17 50 -20 0 -4 6 -7 13 -8 22 -2 41 -8 62 -19 11 -5 26 -8
33 -6 6 3 12 0 12 -5 0 -8 74 -27 93 -23 4 0 7 -3 7 -8 0 -5 8 -8 18 -6 9 1
22 0 27 -4 6 -3 19 -7 30 -8 11 -2 27 -6 35 -10 8 -3 24 -7 35 -8 84 -11 142
-22 155 -30 6 -3 10 -1 10 6 0 10 3 10 11 2 6 -6 17 -9 24 -7 7 3 16 1 20 -5
4 -8 12 -8 27 0 11 6 23 7 27 2 9 -13 141 -12 134 1 -5 8 -3 8 8 0 11 -8 142
-12 159 -4 3 1 10 1 15 0 34 -7 55 -6 55 4 0 6 5 4 10 -4 7 -10 13 -11 18 -5
4 6 23 10 42 10 19 -1 45 2 56 6 13 5 26 3 33 -4 9 -9 11 -8 6 4 -5 13 -1 15
19 12 15 -3 34 1 43 8 12 10 14 10 9 2 -4 -7 -3 -13 3 -13 5 0 12 4 15 9 3 5
19 7 36 6 16 -1 30 0 30 4 0 4 8 8 18 9 31 3 47 7 60 15 6 5 12 6 12 2 0 -3
16 2 37 10 20 8 38 13 41 11 2 -3 17 1 33 10 16 8 29 13 29 10 0 -2 24 5 53
16 28 11 61 22 72 25 11 3 25 10 32 15 7 5 17 7 23 3 5 -3 10 -1 10 5 0 6 4 9
9 5 6 -3 14 3 20 12 6 10 11 14 11 9 0 -4 11 -1 25 8 14 9 30 14 35 11 6 -3
10 -2 10 3 0 8 59 40 71 38 4 0 16 7 26 17 11 9 23 14 26 10 4 -3 7 -1 7 5 0
6 20 20 45 31 25 11 45 25 45 32 0 7 3 10 6 6 4 -3 26 7 50 24 24 16 44 27 44
24 0 -3 8 3 18 12 22 22 72 62 102 83 26 18 51 39 108 91 24 21 47 39 52 39 5
0 12 9 15 21 4 11 9 18 12 15 3 -3 15 4 25 17 11 12 39 43 64 69 24 26 44 51
44 57 0 6 7 11 17 11 9 0 14 3 10 6 -3 3 5 16 19 29 13 12 24 27 24 34 0 6 5
11 10 11 6 0 10 7 10 16 0 8 5 12 10 9 6 -3 10 3 10 15 0 12 4 19 8 16 5 -3
15 6 22 19 7 14 17 25 22 25 5 0 6 5 3 10 -3 6 1 13 9 16 9 3 16 12 16 20 0 8
5 14 11 14 5 0 8 4 4 9 -3 6 2 14 11 19 9 5 16 13 16 18 1 5 12 26 24 46 13
21 24 42 24 48 0 5 5 10 11 10 5 0 7 5 4 10 -3 6 -1 10 5 10 6 0 9 4 5 9 -3 6
2 14 11 19 9 5 15 11 14 13 -1 2 4 18 11 34 7 17 12 33 11 37 -1 5 3 8 9 8 5
0 7 5 4 10 -3 6 -1 10 5 10 6 0 8 5 5 10 -3 6 -1 10 4 10 6 0 11 5 11 11 0 6
6 25 14 42 12 28 26 62 31 77 1 3 7 18 13 33 7 16 12 34 12 41 0 6 4 16 9 22
5 5 11 23 13 39 2 17 7 33 12 36 4 4 9 20 10 36 2 16 6 35 9 40 4 6 8 23 9 37
1 14 5 26 8 26 4 0 6 15 5 34 0 19 3 32 7 30 4 -3 8 5 7 18 0 13 3 39 6 58 3
19 7 51 9 71 2 20 7 42 11 49 6 9 4 11 -6 5 -12 -8 -12 -6 0 8 11 14 11 17 0
17 -9 0 -10 3 -4 8 16 11 18 52 3 52 -9 0 -9 3 -2 8 12 7 15 432 4 432 -4 0
-5 17 -4 38 1 20 -3 43 -10 51 -9 12 -8 13 2 7 11 -7 12 -4 3 13 -7 12 -11 27
-10 34 1 6 -1 28 -5 47 -4 19 -8 45 -9 58 -1 12 -5 22 -9 22 -3 0 -7 8 -7 18
0 16 -8 57 -11 57 -1 0 -4 14 -6 30 -3 17 -7 39 -8 50 -2 11 -8 19 -13 18 -6
-1 -8 9 -5 22 2 15 0 25 -7 25 -7 0 -10 3 -7 8 2 4 -3 23 -11 42 -26 58 -25
81 5 108 15 13 20 21 12 17 -13 -6 -13 -5 0 7 32 29 37 54 35 181 -2 120 -4
129 -26 148 -40 35 -73 44 -204 54 -61 5 -95 14 -95 27 0 5 -4 6 -10 3 -5 -3
-10 0 -10 8 0 7 -9 23 -20 35 -11 12 -20 25 -20 29 0 5 -9 15 -20 23 -11 8
-20 19 -20 25 0 6 -22 34 -50 63 -27 29 -48 52 -45 52 2 0 -7 11 -21 25 -14
14 -29 25 -34 25 -6 0 -9 3 -8 8 2 4 -33 43 -77 87 -43 44 -75 73 -70 65 4 -8
-13 6 -38 33 -26 26 -52 47 -57 47 -6 0 -18 8 -29 18 -30 27 -64 52 -74 52 -4
0 -5 5 -1 12 5 8 2 9 -9 5 -10 -3 -17 -3 -17 2 0 4 -16 16 -35 27 -19 10 -35
22 -35 27 0 4 -4 5 -10 2 -5 -3 -10 -1 -10 4 0 6 -7 11 -15 11 -8 0 -15 5 -15
10 0 6 -9 10 -21 10 -11 0 -17 5 -14 10 3 6 0 10 -8 10 -8 0 -20 7 -27 15 -7
9 -15 13 -18 11 -3 -3 -18 4 -35 16 -18 13 -27 16 -22 7 5 -8 -1 -5 -13 5 -12
11 -22 15 -22 10 0 -5 -4 -4 -8 2 -8 12 -84 49 -94 46 -5 -1 -8 3 -8 8 0 5 -3
9 -7 8 -13 -2 -68 15 -74 23 -3 5 -17 10 -32 11 -15 1 -27 5 -27 9 0 5 -60 26
-100 35 -3 0 -12 4 -20 7 -8 4 -26 9 -40 11 -14 3 -25 5 -25 6 0 1 -15 3 -34
6 -19 2 -40 9 -48 15 -7 6 -13 8 -13 5 0 -4 -9 -2 -20 4 -15 8 -20 8 -20 -1 0
-8 -4 -8 -15 1 -8 7 -15 10 -15 6 0 -4 -13 0 -29 9 -18 9 -32 11 -36 5 -4 -6
-15 -6 -30 0 -14 5 -25 7 -25 4 0 -4 -8 0 -17 7 -15 12 -16 12 -8 -1 7 -12 6
-13 -6 -4 -8 6 -30 12 -49 12 -342 10 -370 10 -363 -1 5 -9 3 -9 -9 0 -8 7
-17 10 -20 7z"/>
</g>
</svg>
